<svg xmlns="http://www.w3.org/2000/svg" width="1200" height="650" viewBox="0 0 1200 650"><rect width="100%" height="100%" fill="#0b1220"/><style>text{font-family:Inter,Arial,sans-serif;fill:#e5e7eb}.muted{fill:#94a3b8}.axis{stroke:#64748b;stroke-width:1}.throughput{fill:#38bdf8}.p95{fill:#a78bfa}.p99{fill:#f472b6}</style><text x="48" y="42" font-size="25" font-weight="700">Measured gateway benchmark</text><text x="48" y="72" font-size="14" class="muted">Recorded values, not causal attribution • exact samples are committed as JSON</text><text x="55" y="98" font-size="17" font-weight="600">Throughput</text><line x1="55" y1="535" x2="555" y2="535" class="axis"/><text x="55" y="627" font-size="12" class="muted">requests / second</text><text x="655" y="98" font-size="17" font-weight="600">Tail latency</text><line x1="655" y1="535" x2="1145" y2="535" class="axis"/><text x="655" y="627" font-size="12" class="muted">milliseconds</text><rect x="65.0" y="145.1" width="72.5" height="389.9" rx="4" class="throughput"/><text x="101.2" y="137.1" font-size="12" text-anchor="middle">2076.9</text><text x="101.2" y="559.0" font-size="11" text-anchor="middle" transform="rotate(25 101.2 559.0)">multi-cpp</text><rect x="190.0" y="191.9" width="72.5" height="343.1" rx="4" class="throughput"/><text x="226.2" y="183.9" font-size="12" text-anchor="middle">1827.8</text><text x="226.2" y="559.0" font-size="11" text-anchor="middle" transform="rotate(25 226.2 559.0)">multi-go</text><rect x="315.0" y="105.0" width="72.5" height="430.0" rx="4" class="throughput"/><text x="351.2" y="97.0" font-size="12" text-anchor="middle">2290.8</text><text x="351.2" y="559.0" font-size="11" text-anchor="middle" transform="rotate(25 351.2 559.0)">single-cpp</text><rect x="440.0" y="161.9" width="72.5" height="373.1" rx="4" class="throughput"/><text x="476.2" y="153.9" font-size="12" text-anchor="middle">1987.7</text><text x="476.2" y="559.0" font-size="11" text-anchor="middle" transform="rotate(25 476.2 559.0)">single-go</text><rect x="665.0" y="354.1" width="34.3" height="180.9" rx="3" class="p95"/><rect x="702.3" y="282.4" width="34.3" height="252.6" rx="3" class="p99"/><text x="682.1" y="348.1" font-size="10" text-anchor="middle">30.8</text><text x="719.5" y="276.4" font-size="10" text-anchor="middle">43.0</text><text x="700.3" y="559.0" font-size="11" text-anchor="middle" transform="rotate(25 700.3 559.0)">multi-cpp</text><rect x="787.5" y="342.5" width="34.3" height="192.5" rx="3" class="p95"/><rect x="824.8" y="105.0" width="34.3" height="430.0" rx="3" class="p99"/><text x="804.6" y="336.5" font-size="10" text-anchor="middle">32.8</text><text x="842.0" y="99.0" font-size="10" text-anchor="middle">73.2</text><text x="822.8" y="559.0" font-size="11" text-anchor="middle" transform="rotate(25 822.8 559.0)">multi-go</text><rect x="910.0" y="385.8" width="34.3" height="149.2" rx="3" class="p95"/><rect x="947.3" y="330.7" width="34.3" height="204.3" rx="3" class="p99"/><text x="927.1" y="379.8" font-size="10" text-anchor="middle">25.4</text><text x="964.5" y="324.7" font-size="10" text-anchor="middle">34.8</text><text x="945.3" y="559.0" font-size="11" text-anchor="middle" transform="rotate(25 945.3 559.0)">single-cpp</text><rect x="1032.5" y="353.6" width="34.3" height="181.4" rx="3" class="p95"/><rect x="1069.8" y="264.8" width="34.3" height="270.2" rx="3" class="p99"/><text x="1049.7" y="347.6" font-size="10" text-anchor="middle">30.9</text><text x="1087.0" y="258.8" font-size="10" text-anchor="middle">46.0</text><text x="1067.8" y="559.0" font-size="11" text-anchor="middle" transform="rotate(25 1067.8 559.0)">single-go</text><rect x="895" y="86" width="12" height="12" class="p95"/><text x="913" y="97" font-size="12">p95</text><rect x="950" y="86" width="12" height="12" class="p99"/><text x="968" y="97" font-size="12">p99</text></svg>